<svg width="44" height="44" viewBox="0 0 44 44" fill="none" xmlns="http://www.w3.org/2000/svg">
<path fill-rule="evenodd" clip-rule="evenodd" d="M21.9997 14.6667C15.9245 14.6667 10.9997 19.5916 10.9997 25.6667C10.9997 31.7418 15.9245 36.6667 21.9997 36.6667C28.0748 36.6667 32.9997 31.7418 32.9997 25.6667C32.9997 19.5916 28.0748 14.6667 21.9997 14.6667ZM7.33301 25.6667C7.33301 17.5665 13.8995 11 21.9997 11C30.0999 11 36.6663 17.5665 36.6663 25.6667C36.6663 33.7669 30.0999 40.3333 21.9997 40.3333C13.8995 40.3333 7.33301 33.7669 7.33301 25.6667Z" fill="white"/>
<path d="M20.167 20.1667C20.167 19.1542 20.9878 18.3334 22.0003 18.3334C23.0129 18.3334 23.8337 19.1542 23.8337 20.1667V25.6667C23.8337 26.6793 23.0129 27.5 22.0003 27.5C20.9878 27.5 20.167 26.6793 20.167 25.6667V20.1667Z" fill="white"/>
<path fill-rule="evenodd" clip-rule="evenodd" d="M20.1663 3.66663C19.1538 3.66663 18.333 4.48745 18.333 5.49996C18.333 6.51247 19.1538 7.33329 20.1663 7.33329H23.833C24.8456 7.33329 25.6663 6.51247 25.6663 5.49996C25.6663 4.48745 24.8456 3.66663 23.833 3.66663H20.1663ZM34.0997 7.24163C33.2897 6.63411 32.1406 6.79827 31.533 7.60829C30.9255 8.41831 31.0897 9.56745 31.8997 10.175L33.733 11.55C34.543 12.1575 35.6921 11.9933 36.2997 11.1833C36.9073 10.3733 36.743 9.22414 35.933 8.61662L34.0997 7.24163Z" fill="white"/>
</svg>
