<svg width="44" height="44" viewBox="0 0 44 44" fill="none" xmlns="http://www.w3.org/2000/svg">
<path fill-rule="evenodd" clip-rule="evenodd" d="M23.8337 25.6666H20.167V33H16.5003C15.4878 33 14.667 33.8207 14.667 34.8333C14.667 35.8458 15.4878 36.6666 16.5003 36.6666H20.167H23.8337H27.5003C28.5129 36.6666 29.3337 35.8458 29.3337 34.8333C29.3337 33.8207 28.5129 33 27.5003 33H23.8337V25.6666Z" fill="white"/>
<path fill-rule="evenodd" clip-rule="evenodd" d="M9.4289 9.16663C6.24668 9.16663 3.66699 11.7463 3.66699 14.9285C3.66699 18.834 6.83298 22 10.7384 22H14.667V18.3333H10.7384C8.85802 18.3333 7.33366 16.8089 7.33366 14.9285C7.33366 13.7714 8.27172 12.8333 9.4289 12.8333H14.667V9.16663H9.4289ZM34.5717 9.16663C37.754 9.16663 40.3337 11.7463 40.3337 14.9285C40.3337 18.834 37.1677 22 33.2623 22H29.3337V18.3333H33.2623C35.1426 18.3333 36.667 16.8089 36.667 14.9285C36.667 13.7714 35.7289 12.8333 34.5717 12.8333H29.3337V9.16663H34.5717Z" fill="white"/>
<path fill-rule="evenodd" clip-rule="evenodd" d="M11 13.3975C11 10.0484 13.715 7.33337 17.0641 7.33337H26.9359C30.285 7.33337 33 10.0484 33 13.3975V18.3334C33 24.4085 28.0751 29.3334 22 29.3334C15.9249 29.3334 11 24.4085 11 18.3334V13.3975ZM17.0641 11C15.74 11 14.6667 12.0734 14.6667 13.3975V18.3334C14.6667 22.3834 17.9499 25.6667 22 25.6667C26.05 25.6667 29.3333 22.3834 29.3333 18.3334V13.3975C29.3333 12.0734 28.2599 11 26.9359 11H17.0641Z" fill="white"/>
</svg>
