<svg width="44" height="44" viewBox="0 0 44 44" fill="none" xmlns="http://www.w3.org/2000/svg">
<path fill-rule="evenodd" clip-rule="evenodd" d="M20.167 7.33337H32.0677C35.7072 7.33337 37.8949 11.3712 35.9071 14.42L33.3556 18.3334L35.9071 22.2468C37.8949 25.2955 35.7072 29.3334 32.0677 29.3334H25.667C22.6293 29.3334 20.167 26.871 20.167 23.8334V7.33337ZM23.8337 11V23.8334C23.8337 24.8459 24.6544 25.6667 25.667 25.6667H32.0677C32.7957 25.6667 33.2332 24.8591 32.8357 24.2494L30.2841 20.3359C29.4906 19.1188 29.4906 17.5479 30.2841 16.3308L32.8357 12.4174C33.2332 11.8076 32.7957 11 32.0677 11H23.8337Z" fill="white"/>
<path fill-rule="evenodd" clip-rule="evenodd" d="M10.9997 7.33329V22H20.1663V9.16663C20.1663 8.15411 19.3456 7.33329 18.333 7.33329H10.9997ZM9.16634 3.66663C8.15383 3.66663 7.33301 4.48745 7.33301 5.49996V25.6666H23.833V9.16663C23.833 6.12907 21.3707 3.66663 18.333 3.66663H9.16634Z" fill="white"/>
<path d="M7.33301 5.49996C7.33301 4.48745 8.15383 3.66663 9.16634 3.66663C10.1789 3.66663 10.9997 4.48745 10.9997 5.49996V38.5C10.9997 39.5125 10.1789 40.3333 9.16634 40.3333C8.15383 40.3333 7.33301 39.5125 7.33301 38.5V5.49996Z" fill="white"/>
</svg>
