<svg width="44" height="44" viewBox="0 0 44 44" fill="none" xmlns="http://www.w3.org/2000/svg">
<path fill-rule="evenodd" clip-rule="evenodd" d="M16.4992 7.33329C13.8827 7.33329 12.1082 9.99504 13.1145 12.4102L14.5248 15.7948C14.9142 16.7295 14.4723 17.8028 13.5376 18.1923C12.603 18.5817 11.5296 18.1397 11.1402 17.2051L9.72993 13.8205C7.71726 8.9901 11.2662 3.66663 16.4992 3.66663H27.4879C32.7118 3.66663 36.2605 8.97339 34.2651 13.8012L32.8601 17.2003C32.4734 18.136 31.4013 18.581 30.4656 18.1943C29.5298 17.8075 29.0847 16.7354 29.4715 15.7996L30.8764 12.4006C31.8743 9.98668 30.0998 7.33329 27.4879 7.33329H16.4992Z" fill="white"/>
<path fill-rule="evenodd" clip-rule="evenodd" d="M21.9997 14.6667C15.9245 14.6667 10.9997 19.5916 10.9997 25.6667C10.9997 31.7418 15.9245 36.6667 21.9997 36.6667C28.0748 36.6667 32.9997 31.7418 32.9997 25.6667C32.9997 19.5916 28.0748 14.6667 21.9997 14.6667ZM7.33301 25.6667C7.33301 17.5665 13.8995 11 21.9997 11C30.0999 11 36.6663 17.5665 36.6663 25.6667C36.6663 33.7669 30.0999 40.3333 21.9997 40.3333C13.8995 40.3333 7.33301 33.7669 7.33301 25.6667Z" fill="white"/>
</svg>
