<svg width="32" height="44" viewBox="0 0 32 44" fill="none" xmlns="http://www.w3.org/2000/svg">
<path d="M26.8606 3.77826C24.097 1.33913 20.2182 0 16 0C11.7818 0 7.90303 1.33913 5.13939 3.77826C1.74545 6.74348 0 11.1913 0 16.7391C0 28.7435 14.0121 42.8522 14.6424 43.4261C15.0303 43.8087 15.5152 44 16 44C16.4848 44 17.0182 43.8087 17.3576 43.4261C17.9879 42.8522 32 28.7435 32 16.7391C32 11.1913 30.2545 6.74348 26.8606 3.77826ZM16 39.2652C14.6909 37.8304 12.6061 35.4391 10.5697 32.5696C6.20606 26.4478 3.87879 20.9957 3.87879 16.7391C3.87879 4.78261 13.1394 3.82609 16 3.82609C27.2485 3.82609 28.1212 13.7261 28.1212 16.7391C28.1212 25.1565 19.4424 35.5348 16 39.2652ZM16 8.27391C11.7333 8.27391 8.29091 11.7652 8.29091 16.0217C8.29091 20.2783 11.7333 23.7217 16 23.7217C20.2667 23.7217 23.7091 20.2304 23.7091 15.9739C23.7091 11.7174 20.2667 8.27391 16 8.27391ZM16 20.3739C13.6242 20.3739 11.6848 18.413 11.6848 15.9739C11.6848 13.5348 13.6242 11.5739 16 11.5739C18.3758 11.5739 20.3152 13.5348 20.3152 15.9739C20.3152 18.413 18.3758 20.3739 16 20.3739Z" fill="white"/>
</svg>
