<svg width="45" height="45" viewBox="0 0 45 45" fill="none" xmlns="http://www.w3.org/2000/svg">
<path d="M41.9152 11.2712C41.9152 11.2204 41.9152 11.1189 41.9152 11.0681C41.9152 11.0174 41.9152 10.9666 41.9152 10.9159C41.9152 10.8651 41.8728 10.8143 41.8728 10.7128C41.8728 10.6621 41.8304 10.5605 41.8304 10.5098C41.8304 10.459 41.788 10.4083 41.7457 10.3575C41.7033 10.3067 41.7033 10.2052 41.6609 10.1545V10.1037C41.6185 10.0529 41.6185 10.0529 41.5761 10.0022C41.5337 9.95141 41.4913 9.90065 41.4489 9.84989C41.4065 9.79913 41.3641 9.74837 41.3217 9.74837C41.2793 9.69761 41.237 9.64685 41.1946 9.64685C41.1522 9.59609 41.1098 9.59609 41.0674 9.54533C41.025 9.49457 40.9826 9.49457 40.9402 9.44381C40.8978 9.44381 40.813 9.39305 40.7707 9.39305C40.7283 9.39305 40.6859 9.34229 40.6011 9.34229C40.5587 9.34229 40.4739 9.34229 40.4315 9.34229C40.3891 9.34229 40.3467 9.34229 40.3043 9.34229H4.61087C4.56848 9.34229 4.52609 9.34229 4.4837 9.34229C4.4413 9.34229 4.35652 9.34229 4.31413 9.34229C4.27174 9.34229 4.22935 9.39305 4.14457 9.39305C4.10217 9.39305 4.01739 9.44381 3.975 9.44381C3.93261 9.44381 3.89022 9.49457 3.84783 9.54533C3.80543 9.59609 3.76304 9.59609 3.72065 9.64685C3.67826 9.69761 3.63587 9.69761 3.59348 9.74837C3.55109 9.79913 3.5087 9.84989 3.4663 9.84989C3.42391 9.90065 3.38152 9.95141 3.33913 10.0022C3.29674 10.0529 3.29674 10.0529 3.25435 10.1037V10.1545C3.21196 10.2052 3.16957 10.3067 3.16957 10.3575C3.12717 10.4083 3.12717 10.459 3.08478 10.5098C3.04239 10.5605 3.04239 10.6113 3.04239 10.7128C3.04239 10.7636 3 10.8143 3 10.9159C3 10.9666 3 11.0174 3 11.0681C3 11.1189 3 11.2204 3 11.2712V11.322V34.6719C3 35.7886 3.76304 36.7023 4.69565 36.7023H40.3043C41.237 36.7023 42 35.7886 42 34.6719L41.9152 11.2712C41.9152 11.322 41.9152 11.2712 41.9152 11.2712ZM35.0902 13.3524L22.4152 24.6212L9.74022 13.3524H35.0902ZM6.30652 32.6414V15.3828L21.3978 28.7836C21.6946 29.0374 22.0337 29.1897 22.4152 29.1897C22.7967 29.1897 23.1359 29.0374 23.4326 28.7836L38.5239 15.3828V32.6414H6.30652Z" fill="white"/>
</svg>
