<svg width="45" height="45" viewBox="0 0 45 45" fill="none" xmlns="http://www.w3.org/2000/svg">
<path d="M43.2879 6.1141C43.239 6.06518 43.239 6.06518 43.19 6.01627L37.9074 1.41845C37.1737 0.733663 36.1955 0.391271 35.1194 0.489097C34.19 0.586923 33.2607 0.978228 32.5759 1.66301C32.527 1.71192 32.4781 1.76084 32.4292 1.80975L27.2444 8.3641C25.8748 9.83149 25.9237 12.0815 27.3422 13.5C27.44 13.5978 27.5379 13.6956 27.6357 13.7445L30.277 15.5054C30.0813 16.4348 28.7118 19.0761 23.8694 23.9184C19.0759 28.7119 16.3857 30.0815 15.5053 30.2771L13.7444 27.6358C13.6955 27.538 13.5976 27.4402 13.4998 27.3424C12.0813 25.9239 9.78243 25.9239 8.36395 27.2445L1.85852 32.4293C1.8096 32.4782 1.76069 32.5271 1.71178 32.5761C0.244387 34.0434 0.146561 36.4891 1.46721 37.9076L6.06504 43.1413C6.11395 43.1902 6.11395 43.1902 6.16287 43.2391C7.0433 44.1195 8.41286 44.4619 9.92917 44.4619C12.6194 44.4619 15.7009 43.3858 17.315 42.75C20.4455 41.5271 26.5596 38.5434 32.6248 32.4782C37.1248 27.9782 40.7444 22.5489 42.8966 17.1684C43.777 14.7228 45.8313 8.65758 43.2879 6.1141ZM29.7879 29.788C20.739 38.8369 10.565 41.3315 8.85308 40.5L4.402 35.3641L10.7607 30.3261L12.4726 32.9184C12.5216 32.9674 12.5216 33.0163 12.5705 33.0652C13.1574 33.7989 13.989 34.1902 14.9672 34.2391C15.8966 34.288 18.7824 34.4347 26.5596 26.6576C28.4672 24.75 34.3368 18.8804 34.1411 15.0652C34.0922 14.0869 33.652 13.2554 32.9672 12.6684C32.9183 12.6195 32.8694 12.5706 32.8205 12.5706L30.3259 10.8097L35.364 4.40214L40.4509 8.85323C41.3313 10.5652 38.8368 20.7391 29.7879 29.788Z" fill="white"/>
</svg>
